<svg xmlns="http://www.w3.org/2000/svg" xmlns:xlink="http://www.w3.org/1999/xlink" width="100" height="100" viewBox="0 0 100 100"><g><circle stroke="none" fill="#FFFFFF" r="48%" cx="50%" cy="50%"></circle><g transform="translate(50 50) scale(0.69 0.69) rotate(0) translate(-50 -50)" style="fill:#F38F19;"><svg fill="#F38F19" xmlns="http://www.w3.org/2000/svg" xmlns:xlink="http://www.w3.org/1999/xlink" version="1.1" x="0px" y="0px" viewBox="0 0 100 100" enable-background="new 0 0 100 100" xml:space="preserve"><g><path d="M29.923,48.287c-0.354,2.211-2.067,3.778-3.828,3.499c-1.763-0.28-2.906-2.299-2.557-4.51   c0.349-2.211,2.064-3.777,3.826-3.5C29.126,44.056,30.273,46.075,29.923,48.287z"></path></g><g><path d="M27.012,59.924c1.327,0.529,2.472,0.988,3.65,0.988c0.066,0,0.131-0.016,0.197-0.019c0.945-1.484,1.124-5.021,2.572-6.026   c0.116-0.08,0.221-0.17,0.319-0.271c1.36-1.406,3.697-4.032,4.057-5.832c0.372-1.87-0.837-5.358-1.591-7.273   c-0.434-1.103-1.681-1.637-2.784-1.209c-1.102,0.434-1.643,1.681-1.211,2.784c0.782,1.986,1.422,4.279,1.391,4.804   c-0.183,0.545-1.468,2.191-2.795,3.587c-5.02,3.347-8.17-0.173-8.97-1.25c-0.659-1.559-1.238-3.366-1.241-3.801   c0.139-0.665,1.559-2.883,3.041-4.75c0.736-0.929,0.582-2.278-0.346-3.016c-0.928-0.734-2.278-0.582-3.014,0.346   c-1.095,1.376-3.662,4.796-3.931,6.836c-0.222,1.67,0.932,4.662,1.64,6.295c0.053,0.121,0.118,0.236,0.19,0.346   c0.069,0.1-0.227,3.521,0.295,6.153c0.688-0.123,1.411-0.205,2.184-0.205C23.24,58.412,25.325,59.248,27.012,59.924z"></path></g><g><path fill="#F38F19" d="M91.074,66.292c2.035-0.087,2.394-0.241,3.901-0.845v-3.856c-1.301,0.521-2.543,0.994-3.901,1.085V66.292z"></path><path fill="#F38F19" d="M16.334,64.933c1.443-0.578,2.803-1.122,4.331-1.122c1.527,0,2.89,0.544,4.331,1.122   c1.616,0.645,3.446,1.376,5.667,1.376c2.223,0,4.052-0.731,5.669-1.378c1.441-0.576,2.8-1.12,4.329-1.12   c1.218,0,2.332,0.35,3.462,0.781v-3.81c-1.049-0.327-2.19-0.57-3.462-0.57c-2.22,0-4.051,0.732-5.666,1.377   c-1.441,0.577-2.803,1.122-4.331,1.122c-1.437,0-2.728-0.485-4.074-1.022c-0.086-0.034-0.169-0.064-0.254-0.1   c-1.615-0.645-3.446-1.377-5.668-1.377c-0.573,0-1.117,0.05-1.641,0.133c-1.508,0.24-2.828,0.767-4.027,1.244   c-1.441,0.577-2.802,1.122-4.331,1.122c-1.533,0-4.205-0.865-5.644-1.44l-0.024,3.664c1.612,0.644,3.438,1.374,5.667,1.374   C12.891,66.311,14.719,65.577,16.334,64.933z"></path><path fill="#F38F19" d="M45.92,56.146V59.5v1.929v3.867v1.916v7.694c0.385,0.144,0.754,0.29,1.103,0.431   c1.046,0.416,1.979,0.78,2.903,0.919V68.08v-1.8v-3.63v-1.805v-2.078c4.123,1.995,9.491,2.825,17.139,2.825   c8.022,0,13.83-0.907,18.202-2.969v0.645v1.913v3.865v1.931v7.698c0.626,0.215,1.211,0.446,1.75,0.662   c0.805,0.32,1.54,0.601,2.258,0.783v-8.099v-1.812v-3.653v-1.846v-4.626c0.938-0.779,1.8-1.639,2.584-2.604   c0.33-0.406,0.469-0.937,0.374-1.452c-0.091-0.516-0.404-0.965-0.855-1.231L67.98,36.974c-0.577-0.34-1.294-0.334-1.862,0.019   L43.786,50.819c-0.439,0.272-0.742,0.72-0.829,1.23c-0.084,0.51,0.053,1.032,0.38,1.435C44.144,54.478,45,55.355,45.92,56.146z"></path><path fill="#F38F19" d="M90.668,78.124c-1.527,0-2.889-0.544-4.33-1.119c-0.16-0.065-0.325-0.131-0.491-0.197   c-0.189-0.073-0.384-0.149-0.581-0.222c-1.348-0.508-2.849-0.96-4.595-0.96c-2.222,0-4.052,0.731-5.667,1.377   c-1.441,0.577-2.801,1.121-4.331,1.121c-1.527,0-2.888-0.544-4.33-1.121c-1.614-0.646-3.446-1.377-5.668-1.377   c-2.22,0-4.052,0.731-5.667,1.379c-1.441,0.575-2.801,1.119-4.33,1.119c-0.852,0-1.654-0.177-2.444-0.428   c-0.627-0.197-1.25-0.438-1.886-0.693c-0.14-0.056-0.284-0.112-0.429-0.17c-1.509-0.599-3.21-1.208-5.238-1.208   c-2.22,0-4.051,0.731-5.667,1.378c-1.441,0.576-2.803,1.121-4.331,1.121c-1.527,0-2.888-0.545-4.329-1.121   c-1.616-0.646-3.446-1.378-5.668-1.378s-4.052,0.731-5.667,1.378c-1.441,0.576-2.802,1.121-4.331,1.121   c-1.533,0-4.227-0.757-5.667-1.332v3.556c1.612,0.645,3.439,1.375,5.667,1.375c2.222,0,4.051-0.731,5.667-1.378   c1.442-0.577,2.802-1.121,4.331-1.121c1.527,0,2.89,0.544,4.33,1.121c1.616,0.646,3.446,1.378,5.667,1.378   c2.223,0,4.052-0.731,5.669-1.378c1.442-0.578,2.801-1.121,4.329-1.121c1.528,0,2.891,0.544,4.331,1.121   c1.615,0.646,3.444,1.378,5.666,1.378s4.053-0.731,5.667-1.378c1.441-0.577,2.801-1.121,4.331-1.121   c1.527,0,2.889,0.544,4.331,1.121c1.615,0.646,3.446,1.378,5.666,1.378c2.222,0,4.053-0.731,5.667-1.378   c1.441-0.577,2.802-1.121,4.331-1.121c1.527,0,2.889,0.544,4.331,1.121c1.613,0.646,3.445,1.378,5.665,1.378   c2.229,0,2.719-0.423,4.331-1.069v-3.65C93.56,77.58,92.2,78.124,90.668,78.124z"></path></g><g><path fill="#F38F19" d="M90.668,96.669c-2.221,0-4.052-0.731-5.666-1.377c-1.441-0.577-2.803-1.121-4.331-1.121   s-2.889,0.544-4.331,1.121c-1.613,0.646-3.445,1.377-5.667,1.377c-2.219,0-4.05-0.731-5.665-1.377   c-1.443-0.577-2.804-1.121-4.331-1.121c-1.529,0-2.89,0.544-4.331,1.121c-1.614,0.646-3.445,1.377-5.667,1.377   s-4.051-0.731-5.666-1.377c-1.441-0.577-2.803-1.121-4.331-1.121c-1.527,0-2.887,0.543-4.329,1.12   c-1.616,0.646-3.445,1.378-5.668,1.378c-2.221,0-4.051-0.731-5.666-1.377c-1.441-0.577-2.803-1.121-4.331-1.121   s-2.889,0.544-4.331,1.121c-1.615,0.646-3.444,1.377-5.667,1.377c-2.228,0-4.055-0.731-5.667-1.375v-3.805   c1.44,0.576,4.134,1.58,5.667,1.58c1.527,0,2.89-0.544,4.331-1.119c1.616-0.647,3.446-1.379,5.667-1.379   c2.222,0,4.053,0.731,5.668,1.379c1.441,0.575,2.801,1.119,4.329,1.119c1.528,0,2.891-0.544,4.331-1.12   c1.615-0.646,3.446-1.378,5.666-1.378c2.222,0,4.053,0.731,5.667,1.379c1.442,0.575,2.803,1.119,4.331,1.119   s2.889-0.544,4.331-1.119c1.613-0.647,3.445-1.379,5.667-1.379c2.221,0,4.053,0.731,5.667,1.378c1.441,0.576,2.802,1.12,4.331,1.12   c1.528,0,2.888-0.544,4.33-1.12c1.614-0.646,3.446-1.378,5.667-1.378c2.222,0,4.053,0.731,5.667,1.379   c1.442,0.575,2.802,1.119,4.329,1.119c1.532,0,2.893-0.544,4.332-1.119l-0.021,3.625C93.364,96.221,92.896,96.669,90.668,96.669z"></path></g></svg></g></g></svg>